<svg width="60" height="60" viewBox="0 0 60 60" fill="none" xmlns="http://www.w3.org/2000/svg">
<path d="M55.0781 15.7031L55.2188 15.6094C54.9375 15.0937 54.5156 14.625 54.0938 14.3906L31.4531 1.35938C31.0781 1.125 30.5625 1.03125 30 1.03125C29.4375 1.03125 28.9219 1.17188 28.5469 1.35938L6.04687 14.4375C5.25 14.9062 4.6875 16.0781 4.6875 16.9687V43.0781C4.6875 43.5938 4.78125 44.1562 5.10937 44.6719L5.01562 44.7188C5.25 45.0938 5.57813 45.4219 5.90625 45.6094L28.5 58.6875C28.875 58.9219 29.3906 59.0156 29.9531 59.0156C30.5156 59.0156 31.0312 58.875 31.4062 58.6875L53.9062 45.6094C54.7031 45.1406 55.2656 43.9688 55.2656 43.0781V16.9219C55.3125 16.5469 55.2656 16.125 55.0781 15.7031ZM30 41.4844C34.2656 41.4844 38.0156 39.1406 39.9844 35.6719L46.0312 39.2344C42.8438 44.7656 36.8438 48.5156 30 48.5156C19.7812 48.5156 11.4844 40.2187 11.4844 30C11.4844 19.7812 19.7812 11.4844 30 11.4844C36.8906 11.4844 42.8906 15.2812 46.0781 20.8594L39.9844 24.375C38.0156 20.8594 34.2656 18.5156 30 18.5156C23.6719 18.5156 18.5156 23.6719 18.5156 30C18.5156 36.3281 23.6719 41.4844 30 41.4844Z" fill="#03599C"/>
</svg>
