<svg width="80" height="80" viewBox="0 0 80 80" fill="none" xmlns="http://www.w3.org/2000/svg">
<path d="M47.7481 34.7975C46.0375 34.7975 44.7637 35.6375 44.7637 37.6594C44.7637 39.1825 45.6031 40.24 47.6562 40.24C49.3962 40.24 50.5787 39.2144 50.5787 37.5963C50.5787 35.7625 49.5206 34.7975 47.7481 34.7975ZM44.3287 49.0725C43.9237 49.5694 43.52 50.0975 43.52 50.7206C43.52 51.9637 45.105 52.3375 47.2831 52.3375C49.0862 52.3375 51.5431 52.2113 51.5431 50.5344C51.5431 49.5375 50.3606 49.4762 48.8675 49.3825L44.3287 49.0725ZM53.5319 34.8913C54.0912 35.6069 54.6831 36.6019 54.6831 38.0325C54.6831 41.4838 51.9775 43.505 48.06 43.505C47.0637 43.505 46.1619 43.3813 45.6025 43.2256L44.5762 44.8737L47.6231 45.0594C53.0031 45.4025 56.1744 45.5581 56.1744 49.6925C56.1744 53.2694 53.0344 55.2894 47.6231 55.2894C41.9944 55.2894 39.8494 53.8588 39.8494 51.4031C39.8494 50.0031 40.4719 49.2587 41.56 48.2306C40.5331 47.7969 40.1919 47.02 40.1919 46.18C40.1919 45.4956 40.5337 44.8737 41.0937 44.2825C41.6537 43.6925 42.2756 43.1006 43.0212 42.4169C41.4975 41.6706 40.3475 40.0538 40.3475 37.7519C40.3475 34.1763 42.7106 31.7206 47.4681 31.7206C48.8056 31.7206 49.615 31.8438 50.3294 32.0319H56.3937V34.6744L53.5319 34.8913ZM61.8644 29.2413C60.0912 29.2413 59.065 28.2144 59.065 26.4413C59.065 24.6706 60.0912 23.7056 61.8644 23.7056C63.6681 23.7056 64.6937 24.67 64.6937 26.4413C64.6944 28.2144 63.6681 29.2413 61.8644 29.2413ZM57.8519 47.9287V45.4731L59.4387 45.2556C59.8737 45.1931 59.9356 45.1 59.9356 44.6325V35.4906C59.9356 35.1494 59.8431 34.9306 59.5312 34.8381L57.8519 34.2469L58.1937 31.7294H64.6319V44.6331C64.6319 45.1319 64.6619 45.1931 65.1294 45.2563L66.7156 45.4738V47.9294H57.8519V47.9287ZM79.0125 46.7225C77.6744 47.3744 75.7162 47.9663 73.9425 47.9663C70.2425 47.9663 68.8437 46.475 68.8437 42.9594V34.8125C68.8437 34.6269 68.8437 34.5019 68.5944 34.5019H66.4181V31.7344C69.1556 31.4225 70.2431 30.0544 70.585 26.665H73.54V31.0819C73.54 31.2988 73.54 31.3931 73.7887 31.3931H78.1731V34.5025H73.54V41.9338C73.54 43.7681 73.9756 44.4831 75.6544 44.4831C76.5262 44.4831 77.4269 44.2662 78.1731 43.9862L79.0125 46.7225Z" fill="#31251C"/>
<path d="M32.9375 38.5625L18.7194 24.345C18.3261 23.9519 17.7929 23.731 17.2369 23.731C16.6808 23.731 16.1476 23.9519 15.7544 24.345L12.8019 27.2975L16.5462 31.0425C16.9865 30.8928 17.46 30.8694 17.9129 30.975C18.3658 31.0806 18.7801 31.311 19.1087 31.64C19.4394 31.9709 19.6702 32.3882 19.7749 32.8441C19.8796 33.3 19.8538 33.7761 19.7006 34.2181L23.31 37.8275C23.8435 37.6416 24.4242 37.6425 24.9571 37.8299C25.4901 38.0174 25.9435 38.3803 26.2431 38.8592C26.5428 39.3381 26.6708 39.9046 26.6063 40.4658C26.5418 41.027 26.2886 41.5497 25.8881 41.9481C25.4804 42.3566 24.9438 42.6111 24.3695 42.6683C23.7952 42.7255 23.2189 42.5819 22.7386 42.2619C22.2584 41.9418 21.9039 41.4652 21.7356 40.9132C21.5673 40.3612 21.5956 39.7679 21.8156 39.2344L18.4494 35.8681L18.4487 44.7269C18.8041 44.9024 19.1125 45.16 19.3484 45.4784C19.5844 45.7968 19.7411 46.1668 19.8056 46.5578C19.8701 46.9488 19.8405 47.3495 19.7194 47.7268C19.5982 48.1042 19.3889 48.4472 19.1087 48.7275C18.8475 48.9886 18.5316 49.1885 18.1838 49.3127C17.836 49.4369 17.4649 49.4824 17.0974 49.4459C16.7299 49.4093 16.3751 49.2917 16.0585 49.1014C15.742 48.9111 15.4716 48.6529 15.267 48.3454C15.0623 48.038 14.9284 47.6889 14.875 47.3235C14.8216 46.958 14.8499 46.5853 14.958 46.2321C15.0661 45.879 15.2513 45.5542 15.5001 45.2812C15.7489 45.0083 16.0552 44.794 16.3969 44.6537V35.7131C16.0922 35.5883 15.8152 35.4044 15.5819 35.172C15.3487 34.9396 15.1638 34.6633 15.0378 34.3591C14.9119 34.0548 14.8475 33.7286 14.8483 33.3994C14.8491 33.0701 14.9151 32.7443 15.0425 32.4406L11.3512 28.7481L1.60187 38.4969C1.40701 38.6917 1.25244 38.9229 1.14698 39.1774C1.04152 39.432 0.987244 39.7048 0.987244 39.9803C0.987244 40.2558 1.04152 40.5286 1.14698 40.7832C1.25244 41.0377 1.40701 41.269 1.60187 41.4637L15.82 55.6812C16.2134 56.0744 16.7469 56.2953 17.3031 56.2953C17.8593 56.2953 18.3928 56.0744 18.7862 55.6812L32.9375 41.5287C33.1323 41.334 33.2869 41.1028 33.3923 40.8483C33.4978 40.5938 33.5521 40.3211 33.5521 40.0456C33.5521 39.7702 33.4978 39.4974 33.3923 39.2429C33.2869 38.9884 33.1323 38.7572 32.9375 38.5625Z" fill="#F34F29"/>
</svg>
