<svg width="80" height="80" viewBox="0 0 80 80" fill="none" xmlns="http://www.w3.org/2000/svg">
<g clip-path="url(#clip0_18_67)">
<path d="M40 0C29.3913 0 19.2172 4.21427 11.7157 11.7157C4.21427 19.2172 0 29.3913 0 40C0 50.6087 4.21427 60.7828 11.7157 68.2843C19.2172 75.7857 29.3913 80 40 80C50.6087 80 60.7828 75.7857 68.2843 68.2843C75.7857 60.7828 80 50.6087 80 40C80 29.3913 75.7857 19.2172 68.2843 11.7157C60.7828 4.21427 50.6087 0 40 0V0ZM50.5433 72.61H50.2333C50.0005 72.6232 49.7674 72.5885 49.5484 72.5083C49.3294 72.428 49.1292 72.3038 48.96 72.1433C48.8036 71.9781 48.6818 71.7833 48.6017 71.5704C48.5216 71.3574 48.4847 71.1307 48.4933 70.9033V66.2167C48.5133 64.66 48.5267 63.0833 48.5267 61.4967C48.5212 60.3364 48.3518 59.1828 48.0233 58.07C47.7122 56.9451 47.0852 55.9329 46.2167 55.1533C48.54 54.929 50.8239 54.4012 53.01 53.5833C54.8541 52.8821 56.5221 51.7852 57.8967 50.37C59.2533 48.9467 60.2633 47.2267 60.8467 45.35C61.5562 43.0517 61.8938 40.6548 61.8467 38.25C61.8597 36.5709 61.5659 34.9036 60.98 33.33C60.3846 31.744 59.4843 30.29 58.33 29.05C58.5792 28.4246 58.7602 27.7742 58.87 27.11C58.98 26.4433 59.0367 25.77 59.0367 25.0967C59.0367 24.23 58.9367 23.3633 58.7367 22.52C58.555 21.655 58.3087 20.8049 58 19.9767C57.8821 19.9307 57.7565 19.9081 57.63 19.91H57.2633C56.4967 19.9167 55.7433 20.0433 55.0167 20.28C54.2162 20.5136 53.4332 20.8032 52.6733 21.1467C51.9177 21.4854 51.182 21.8671 50.47 22.29C49.7533 22.7133 49.12 23.12 48.56 23.4967C42.9524 21.9338 37.0242 21.9338 31.4167 23.4967C30.7913 23.0786 30.1555 22.6762 29.51 22.29C28.7879 21.8636 28.0397 21.4828 27.27 21.15C26.5122 20.7952 25.7262 20.5042 24.92 20.28C24.2077 20.0447 23.4635 19.9199 22.7133 19.91H22.3467C22.2213 19.9082 22.0967 19.9309 21.98 19.9767C21.6669 20.806 21.4107 21.6558 21.2133 22.52C21.0333 23.3667 20.9467 24.23 20.9433 25.0967C20.9433 25.77 21 26.4433 21.1133 27.11C21.2233 27.7733 21.4 28.4233 21.6467 29.05C20.4953 30.2916 19.5984 31.7468 19.0067 33.3333C18.4176 34.9064 18.1205 36.5737 18.13 38.2533C18.0834 40.6453 18.4118 43.0297 19.1033 45.32C19.7067 47.1967 20.7133 48.92 22.05 50.3733C23.4333 51.78 25.1 52.8733 26.9367 53.5867C29.1133 54.42 31.3933 54.9533 33.7133 55.1733C33.0656 55.7604 32.5517 56.4801 32.2067 57.2833C31.8784 58.0778 31.6543 58.9114 31.54 59.7633C30.3169 60.3489 28.9793 60.6563 27.6233 60.6633C26.364 60.7137 25.1212 60.3636 24.0733 59.6633C23.0681 58.9184 22.2169 57.9856 21.5667 56.9167C21.2757 56.4677 20.9503 56.0419 20.5933 55.6433C20.2168 55.2242 19.8016 54.8414 19.3533 54.5C18.9115 54.1698 18.4271 53.9007 17.9133 53.7C17.4078 53.4784 16.8619 53.3637 16.31 53.3633C16.1767 53.3667 16.0433 53.38 15.91 53.3967C15.7279 53.3961 15.5465 53.4185 15.37 53.4633C15.2149 53.5039 15.0682 53.5716 14.9367 53.6633C14.8769 53.6963 14.8269 53.7445 14.7917 53.803C14.7566 53.8616 14.7376 53.9284 14.7367 53.9967C14.7507 54.1571 14.7997 54.3125 14.8804 54.4519C14.961 54.5912 15.0712 54.7112 15.2033 54.8033C15.5133 55.05 15.77 55.24 15.9767 55.3733L16.0767 55.4433C16.52 55.7867 16.9467 56.1567 17.35 56.5533C17.7233 56.88 18.06 57.25 18.35 57.6533C18.65 58.05 18.91 58.4733 19.12 58.9233C19.3633 59.37 19.62 59.8833 19.89 60.4667C20.5167 62.0467 21.63 63.3833 23.07 64.2833C24.58 65.0933 26.2733 65.4967 27.99 65.4533C28.57 65.4533 29.1533 65.42 29.73 65.3533C30.3033 65.26 30.8733 65.1633 31.4467 65.05V70.86C31.457 71.0943 31.4179 71.3281 31.3317 71.5462C31.2455 71.7642 31.1143 71.9617 30.9466 72.1256C30.779 72.2895 30.5786 72.4162 30.3586 72.4974C30.1386 72.5785 29.904 72.6124 29.67 72.5967H29.4633C21.6901 70.0855 15.0689 64.8816 10.7919 57.922C6.5149 50.9625 4.86322 42.7045 6.13427 34.6353C7.40532 26.566 11.5156 19.2157 17.7249 13.9079C23.9342 8.60006 31.8346 5.68357 40.0033 5.68357C48.1721 5.68357 56.0724 8.60006 62.2818 13.9079C68.4911 19.2157 72.6013 26.566 73.8724 34.6353C75.1434 42.7045 73.4918 50.9625 69.2148 57.922C64.9378 64.8816 58.3165 70.0855 50.5433 72.5967V72.6133V72.61Z" fill="black"/>
</g>
<defs>
<clipPath id="clip0_18_67">
<rect width="80" height="80" fill="white"/>
</clipPath>
</defs>
</svg>
