<svg width="80" height="80" viewBox="0 0 80 80" fill="none" xmlns="http://www.w3.org/2000/svg">
<g clip-path="url(#clip0_206_2)">
<path d="M80 18.19V64.5533C80 67.5667 77.56 70.0067 74.5467 70.0067H61.8167V39.1L40 55.4667L18.1833 39.1V70.01H5.45333C4.73691 70.01 4.02751 69.8688 3.36566 69.5946C2.70382 69.3203 2.1025 68.9183 1.59607 68.4116C1.08963 67.9048 0.688014 67.3033 0.414154 66.6413C0.140295 65.9792 -0.000436892 65.2698 1.01884e-06 64.5533V18.19C1.01884e-06 11.4467 7.69667 7.59667 13.09 11.6433L18.1833 15.4667L40 31.8267L61.8167 15.46L66.91 11.6433C72.3 7.6 80 11.4467 80 18.19Z" fill="black"/>
</g>
<defs>
<clipPath id="clip0_206_2">
<rect width="80" height="80" fill="white"/>
</clipPath>
</defs>
</svg>
