<svg width="80" height="80" viewBox="0 0 80 80" fill="none" xmlns="http://www.w3.org/2000/svg">
<g clip-path="url(#clip0_18_35)">
<path d="M68.1635 68.1647H56.3101V49.6012C56.3101 45.1747 56.231 39.4762 50.1451 39.4762C43.9713 39.4762 43.0266 44.2994 43.0266 49.2791V68.1634H31.1735V29.9897H42.5526V35.2066H42.7119C43.8507 33.2594 45.4963 31.6575 47.4735 30.5716C49.4506 29.4857 51.6853 28.9564 53.9394 29.04C65.9535 29.04 68.1685 36.9425 68.1685 47.2231L68.1635 68.1647ZM17.7985 24.7719C13.9994 24.7725 10.9191 21.6931 10.9185 17.8941C10.9179 14.095 13.9969 11.0147 17.796 11.0141C21.5951 11.0131 24.6754 14.0925 24.676 17.8916C24.6763 19.7159 23.9519 21.4657 22.6622 22.7561C21.3724 24.0463 19.6229 24.7715 17.7985 24.7719ZM23.7254 68.165H11.8594V29.9897H23.7251V68.1647L23.7254 68.165ZM74.0729 0.0056241H5.90319C2.68132 -0.0306259 0.0391309 2.55031 -0.000244141 5.77219V74.2262C0.0378809 77.4497 2.67976 80.0331 5.90288 79.9994H74.0729C77.3029 80.0394 79.9551 77.4559 79.9998 74.2262V5.76687C79.9538 2.53875 77.3013 -0.0418759 74.0729 0.000311602" fill="#0A66C2"/>
</g>
<defs>
<clipPath id="clip0_18_35">
<rect width="80" height="80" fill="white"/>
</clipPath>
</defs>
</svg>
