<svg width="60" height="60" viewBox="0 0 60 60" fill="none" xmlns="http://www.w3.org/2000/svg">
<path d="M3.75 32.9062L18.6938 26.8687C20.2106 24.8642 21.9186 23.0117 23.7937 21.3375C25.0312 20.6812 27.3563 21.0375 31.6125 15.75C35.7375 10.5937 37.05 6.1875 38.9813 6.1875C42.0375 6.1875 44.2875 12.7875 47.7 22.7812C50.1331 30.4147 52.9875 37.9075 56.25 45.225C52.6875 41.9062 49.65 38.325 46.1812 38.4188C42.9562 38.4937 39.375 42.3187 35.4562 47.2313C32.3438 51.1688 28.2188 53.8688 26.6062 53.8125C26.6062 53.8125 22.4437 42.0375 18.9562 40.125C18.2327 39.8294 17.4495 39.7093 16.6706 39.7745C15.8917 39.8397 15.1394 40.0883 14.475 40.5L3.75 32.8875V32.9062Z" fill="#4499DD"/>
<path d="M37.125 7.53751C35.8687 9.22501 34.35 12.3188 31.6125 15.75C27.3562 21.0375 25.05 20.6813 23.7937 21.3375C21.9097 23.0026 20.2008 24.856 18.6937 26.8688L24.8812 31.3875C30.1312 24.225 32.9437 16.4625 35.1375 11.4375C35.6868 10.0829 36.3518 8.77804 37.125 7.53751Z" fill="url(#paint0_linear_18_141)"/>
<path d="M39 6.1875C34.9125 6.1875 32.1188 27.7125 17.025 39.7313C21.2625 39.0375 24.9375 49.5563 26.625 53.8125C34.125 52.5375 40.125 38.1938 46.1813 38.4188C49.65 38.55 52.6875 41.9063 56.25 45.225C48.1125 28.125 44.3063 6.1875 39 6.1875Z" fill="url(#paint1_linear_18_141)"/>
<defs>
<linearGradient id="paint0_linear_18_141" x1="31.5056" y1="28.8169" x2="28.1494" y2="17.9794" gradientUnits="userSpaceOnUse">
<stop stop-color="#551122"/>
<stop offset="0.23" stop-color="#552233"/>
<stop offset="0.36" stop-color="#553344"/>
<stop offset="0.51" stop-color="#664455"/>
<stop offset="0.66" stop-color="#556688"/>
<stop offset="0.84" stop-color="#2299DD"/>
</linearGradient>
<linearGradient id="paint1_linear_18_141" x1="55.7063" y1="35.5931" x2="21.9563" y2="27.3056" gradientUnits="userSpaceOnUse">
<stop offset="0.081" stop-color="#CC3333"/>
<stop offset="0.189" stop-color="#DE5239"/>
<stop offset="0.313" stop-color="#F06E3E"/>
<stop offset="0.421" stop-color="#FA8042"/>
<stop offset="0.5" stop-color="#FE8643"/>
<stop offset="0.58" stop-color="#FA7F42"/>
<stop offset="0.696" stop-color="#EF6C3E"/>
<stop offset="0.833" stop-color="#DC4C37"/>
<stop offset="0.916" stop-color="#CF3633"/>
</linearGradient>
</defs>
</svg>
