<svg width="80" height="80" viewBox="0 0 80 80" fill="none" xmlns="http://www.w3.org/2000/svg">
<path d="M78.81 16.4567C76.0266 17.69 73.0366 18.5233 69.8933 18.9C73.1366 16.9593 75.5631 13.9049 76.72 10.3067C73.6728 12.1166 70.3378 13.3907 66.86 14.0733C64.5212 11.5762 61.4235 9.92109 58.0477 9.36491C54.6719 8.80874 51.2069 9.38264 48.1908 10.9975C45.1745 12.6124 42.7759 15.1779 41.3671 18.2957C39.9584 21.4135 39.6184 24.9092 40.4 28.24C34.2256 27.93 28.1854 26.3252 22.6714 23.5297C17.1574 20.7342 12.2928 16.8105 8.39329 12.0133C7.05996 14.3133 6.29329 16.98 6.29329 19.82C6.2918 22.3767 6.9214 24.8941 8.12622 27.1491C9.33104 29.4041 11.0738 31.3268 13.2 32.7467C10.7342 32.6682 8.32287 32.0019 6.16662 30.8033V31.0033C6.16638 34.5891 7.40673 38.0646 9.67723 40.84C11.9477 43.6154 15.1085 45.5198 18.6233 46.23C16.3359 46.8491 13.9377 46.9402 11.61 46.4967C12.6016 49.582 14.5333 52.2801 17.1345 54.2131C19.7358 56.1461 22.8763 57.2173 26.1166 57.2767C20.6161 61.5947 13.8229 63.937 6.82996 63.9267C5.59123 63.927 4.35355 63.8547 3.12329 63.71C10.2215 68.2739 18.4844 70.6961 26.9233 70.6867C55.49 70.6867 71.1066 47.0267 71.1066 26.5067C71.1066 25.84 71.09 25.1667 71.06 24.5C74.0976 22.3032 76.7197 19.583 78.8033 16.4667L78.81 16.4567Z" fill="black"/>
</svg>
