<svg width="60" height="60" viewBox="0 0 60 60" fill="none" xmlns="http://www.w3.org/2000/svg">
<path d="M30 1.52156C14.2711 1.52156 1.52109 14.2716 1.52109 30C1.52109 45.7275 14.2711 58.4784 30 58.4784C45.7284 58.4784 58.4789 45.7275 58.4789 30C58.4789 14.2716 45.7289 1.52156 30 1.52156ZM36.3895 11.3287C36.6391 10.8964 36.9713 10.5175 37.3673 10.2136C37.7633 9.90969 38.2153 9.68675 38.6975 9.55752C39.1796 9.42829 39.6825 9.39529 40.1774 9.4604C40.6723 9.52552 41.1496 9.68748 41.5819 9.93703C42.0142 10.1866 42.3931 10.5188 42.697 10.9148C43.0009 11.3108 43.2239 11.7628 43.3531 12.245C43.4823 12.7271 43.5153 13.23 43.4502 13.7249C43.3851 14.2198 43.2231 14.6971 42.9736 15.1294C42.7241 15.5618 42.3919 15.9408 41.9959 16.2448C41.5999 16.5487 41.1479 16.7717 40.6656 16.9008C40.1834 17.03 39.6805 17.0629 39.1856 16.9975C38.6906 16.9322 38.2134 16.77 37.7812 16.5202C36.9085 16.0161 36.2716 15.1861 36.0106 14.2126C35.7497 13.2391 35.8859 12.2018 36.3895 11.3287ZM30 13.4827C31.5291 13.4827 33.008 13.695 34.4128 14.0831C34.5385 14.8654 34.8371 15.6098 35.287 16.2619C35.7369 16.9141 36.3267 17.4576 37.0134 17.8528C37.6983 18.2487 38.4626 18.4872 39.2511 18.5512C40.0395 18.6151 40.8323 18.5029 41.572 18.2227C44.3836 20.9873 46.2131 24.7472 46.4798 28.9355L41.062 29.0152C40.5619 23.3419 35.8017 18.8934 30 18.8934C28.3839 18.8918 26.7871 19.2443 25.3219 19.9261L22.6795 15.1922C24.9552 14.0653 27.4606 13.4802 30 13.4827ZM10.6355 33.8025C10.1361 33.8026 9.64156 33.7043 9.18017 33.5132C8.71877 33.3221 8.29953 33.042 7.94639 32.6889C7.59324 32.3358 7.31311 31.9166 7.12199 31.4553C6.93086 30.9939 6.83249 30.4994 6.83249 30C6.83237 29.5006 6.93065 29.006 7.12173 28.5445C7.3128 28.0831 7.59292 27.6638 7.94608 27.3106C8.29925 26.9575 8.71853 26.6773 9.17998 26.4863C9.64144 26.2952 10.136 26.1969 10.6355 26.197C11.6367 26.2081 12.5932 26.6137 13.2972 27.3256C14.0013 28.0376 14.3962 28.9985 14.3962 29.9998C14.3962 31.0011 14.0013 31.962 13.2972 32.6739C12.5932 33.3858 11.6367 33.7914 10.6355 33.8025ZM14.0062 34.1409C14.6217 33.6406 15.1178 33.0092 15.4584 32.2929C15.7989 31.5765 15.9754 30.7932 15.975 30C15.975 28.3289 15.2067 26.8373 14.0062 25.8581C15.0347 21.8789 17.5102 18.4809 20.8364 16.2567L23.6166 20.9133C20.7609 22.9228 18.8944 26.2425 18.8944 30C18.8944 33.7575 20.7605 37.0772 23.6166 39.0858L20.8364 43.7438C17.5087 41.52 15.0333 38.1211 14.0062 34.1409ZM41.5833 50.0616C41.151 50.3114 40.6738 50.4735 40.1788 50.5388C39.6839 50.604 39.1809 50.5711 38.6987 50.4418C38.2164 50.3126 37.7644 50.0896 37.3684 49.7855C36.9725 49.4815 36.6403 49.1023 36.3909 48.6698C35.3405 46.8525 35.9639 44.5284 37.7826 43.478C39.6 42.4284 41.9255 43.0523 42.975 44.8697C43.2247 45.3019 43.3867 45.7791 43.4519 46.274C43.5171 46.7689 43.4841 47.2718 43.3549 47.754C43.2256 48.2361 43.0026 48.6881 42.6987 49.084C42.3947 49.48 42.0157 49.8121 41.5833 50.0616ZM41.572 41.7773C40.8325 41.4963 40.0396 41.3837 39.251 41.4475C38.4625 41.5114 37.6981 41.7503 37.0134 42.1467C36.3269 42.5421 35.7372 43.0856 35.2874 43.7378C34.8376 44.3899 34.539 45.1342 34.4133 45.9164C32.9761 46.3154 31.4915 46.5179 30 46.5183C27.4607 46.5207 24.9553 45.9352 22.68 44.8078L25.3219 40.0734C26.7871 40.7554 28.3839 41.108 30 41.1066C35.8022 41.1066 40.5619 36.6591 41.0606 30.9853L46.4798 31.0645C46.2131 35.2528 44.3836 39.0127 41.572 41.7773Z" fill="#DD4814"/>
</svg>
